<svg data-v-423bf9ae="" xmlns="http://www.w3.org/2000/svg" viewBox="0 0 270 90" class="iconLeft"><!----><!----><!----><g data-v-423bf9ae="" id="f6388ac9-effd-4739-8ae1-1bfd40fb9c49" fill="#FFFFFF" transform="matrix(4.222378730773926,0,0,4.222378730773926,65.10872650146484,17.026742935180664)"><path d="M7.15 10.50L9.91 10.50L5.77 4.94L9.55 0.71L6.80 0.71L3.33 4.70L3.33 0.71L1.04 0.71L1.04 10.50L3.33 10.50L3.33 7.10L4.12 6.37ZM10.05 4.58L11.05 4.58L11.05 8.51C11.05 9.90 11.76 10.64 13.03 10.64C13.82 10.64 14.25 10.58 14.70 10.56L14.70 8.81L14 8.81C13.43 8.81 13.24 8.64 13.24 8.11L13.24 4.58L14.67 4.58L14.67 3.00L13.24 3.00L13.24 0.70L11.05 0.70L11.05 3.00L10.05 3.00ZM23.67 6.71C23.67 4.48 22.86 2.86 20.89 2.86C19.70 2.86 18.83 3.28 18.48 4.33C18.48 3.84 18.44 3.40 18.41 3.00L16.27 3.00C16.30 3.37 16.34 3.98 16.34 4.76L16.34 13.73L18.51 13.73L18.51 10.47C18.51 10.04 18.48 9.55 18.45 9.24C18.93 10.37 19.92 10.64 20.76 10.64C22.75 10.64 23.67 9.13 23.67 6.71ZM21.39 6.73C21.39 8.44 20.85 9.13 19.96 9.13C19.31 9.13 18.48 8.67 18.48 6.75C18.48 4.89 19.26 4.40 19.96 4.40C20.89 4.40 21.39 5.05 21.39 6.73ZM32.24 9.10L31.72 9.10C31.32 9.10 31.19 8.90 31.19 8.55L31.19 5.60C31.19 3.81 30.24 2.86 28.13 2.86C26.04 2.86 25.03 3.79 24.91 5.14L26.92 5.26C26.92 4.56 27.30 4.17 28 4.17C28.67 4.17 29.06 4.49 29.06 5.35L29.06 5.98L28.32 5.98C25.86 5.98 24.61 6.65 24.61 8.40C24.61 9.53 25.37 10.64 27.03 10.64C28.06 10.64 28.90 10.21 29.25 9.25C29.26 10.16 30.00 10.64 31.07 10.64C31.54 10.64 31.77 10.63 32.24 10.58ZM27.79 9.24C27.08 9.24 26.74 8.75 26.74 8.20C26.74 7.36 27.40 7.10 28.11 7.10L29.06 7.10L29.06 7.66C29.06 8.68 28.53 9.24 27.79 9.24ZM36.53 10.64C38.72 10.64 39.79 9.35 39.96 7.88L37.81 7.80C37.72 8.75 37.23 9.17 36.57 9.17C35.63 9.17 35.18 8.39 35.18 6.71C35.18 5.12 35.59 4.37 36.53 4.37C37.27 4.37 37.67 4.84 37.76 5.63L39.91 5.53C39.73 4.09 38.64 2.86 36.53 2.86C34.17 2.86 32.90 4.28 32.90 6.78C32.90 9.14 34.09 10.64 36.53 10.64ZM46.10 10.50L48.47 10.50L45.71 5.96L48.24 3.00L45.92 3.00L43.47 5.95L43.47-0.48L41.29-0.48L41.29 10.50L43.47 10.50L43.47 7.87L44.23 7.24Z"></path></g><!----><g data-v-423bf9ae="" id="a61b6c13-44fe-4861-a14a-06f2271e0221" transform="matrix(1,0,0,1,-24.749998092651367,-5)" stroke="none" fill="#E8185E"><path d="M25.7 82.7l23.9 12.5V70.4L25.7 57.9zM51.2 95.2l24-12.5V57.9l-24 12.5zM74.2 56.6l-10.1-5.3-13.4 7c-.1.1-.2.1-.4.1s-.3 0-.4-.1l-13.4-7-10.1 5.3 24 12.4 16.5-8.6 7.3-3.8z"></path><path d="M49.6 56.2V31.5L25.7 19v24.7zM51.2 31.5v24.7l24-12.5V19zM50.4 30.1l15.3-8 8.5-4.5L50.4 5.2 26.6 17.6l23.8 12.5z"></path></g><!----></svg>